# xmcd CD database file
#
# Track frame offsets:
#	150
#	9925
#	22897
#	38774
#	57941
#	73846
#	90235
#	116862
#	136161
#	155865
#	176019
#	191923
#	208400
#	222558
#	242913
#
# Disc length: 3598 seconds
#
# Revision: 3
# Processed by: cddbd v1.5.1PL0 Copyright (c) Steve Scherf et al.
# Submitted via: CDex 1.51
#
DISCID=dd0e0c0f
DTITLE=Paolo Conte - Tournée 2 2/2
DYEAR=1998
DGENRE=Cantautori Italiani
TTITLE0=Rebus
TTITLE1=Tua cugina prima (Tutti a Venezia)
TTITLE2=Spassiunatamente
TTITLE3=Schiava del Politeama
TTITLE4=La frase
TTITLE5=Sijmadicandhapajiee
TTITLE6=L'avance
TTITLE7=Il treno va
TTITLE8=I giardini pensili hanno fatto il loro tempo
TTITLE9=Don't throw it in the wc
TTITLE10=Per quel che vale
TTITLE11=Do-do
TTITLE12=Una di queste notti
TTITLE13=Irresistibile
TTITLE14=Roba di Amilcare
EXTD=\n YEAR: 1998
EXTT0=
EXTT1=
EXTT2=
EXTT3=
EXTT4=
EXTT5=
EXTT6=
EXTT7=
EXTT8=
EXTT9=
EXTT10=
EXTT11=
EXTT12=
EXTT13=
EXTT14=
PLAYORDER=
